<mxfile host="app.diagrams.net" modified="2020-12-16T08:35:40.692Z" agent="5.0 (Windows NT 10.0; Win64; x64) AppleWebKit/537.36 (KHTML, like Gecko) Chrome/87.0.4280.88 Safari/537.36" etag="b1OMpX8vLecOJu9_KVHJ" version="13.9.2" type="github" pages="5">
  <diagram id="_8aclJ03X7TSOisfSmvM" name="User Agent">
    <mxGraphModel dx="1422" dy="762" grid="1" gridSize="10" guides="1" tooltips="1" connect="1" arrows="1" fold="1" page="1" pageScale="1" pageWidth="827" pageHeight="1169" math="0" shadow="0">
      <root>
        <mxCell id="0" />
        <mxCell id="1" parent="0" />
        <mxCell id="SVkB-OViIjORlzQnMt2v-1" value="Actor" style="shape=umlActor;verticalLabelPosition=bottom;verticalAlign=top;html=1;" vertex="1" parent="1">
          <mxGeometry x="110" y="190" width="80" height="230" as="geometry" />
        </mxCell>
        <mxCell id="SVkB-OViIjORlzQnMt2v-6" value="&lt;b&gt;&lt;font style=&quot;font-size: 18px&quot;&gt;User&lt;/font&gt;&lt;br&gt;&lt;/b&gt;&lt;font style=&quot;font-size: 18px&quot;&gt;&lt;b&gt;Agent&lt;/b&gt;&lt;/font&gt;" style="rounded=1;whiteSpace=wrap;html=1;rotation=90;horizontal=0;" vertex="1" parent="1">
          <mxGeometry x="485" y="225" width="337.5" height="160" as="geometry" />
        </mxCell>
        <mxCell id="SVkB-OViIjORlzQnMt2v-7" value="" style="endArrow=classic;html=1;" edge="1" parent="1">
          <mxGeometry width="50" height="50" relative="1" as="geometry">
            <mxPoint x="200" y="300" as="sourcePoint" />
            <mxPoint x="570" y="300" as="targetPoint" />
            <Array as="points" />
          </mxGeometry>
        </mxCell>
        <mxCell id="SVkB-OViIjORlzQnMt2v-9" value="update user current location" style="text;html=1;align=center;verticalAlign=middle;resizable=0;points=[];autosize=1;fontSize=16;" vertex="1" parent="1">
          <mxGeometry x="265" y="270" width="210" height="20" as="geometry" />
        </mxCell>
        <mxCell id="SVkB-OViIjORlzQnMt2v-11" value="update user&#39;s health status" style="text;html=1;align=center;verticalAlign=middle;resizable=0;points=[];autosize=1;fontSize=16;" vertex="1" parent="1">
          <mxGeometry x="265" y="320" width="210" height="20" as="geometry" />
        </mxCell>
        <mxCell id="SVkB-OViIjORlzQnMt2v-12" value="" style="endArrow=classic;html=1;fontSize=16;" edge="1" parent="1">
          <mxGeometry width="50" height="50" relative="1" as="geometry">
            <mxPoint x="570" y="400" as="sourcePoint" />
            <mxPoint x="200" y="400" as="targetPoint" />
          </mxGeometry>
        </mxCell>
        <mxCell id="SVkB-OViIjORlzQnMt2v-15" value="display active case alert or alert dismissed" style="text;html=1;align=center;verticalAlign=middle;resizable=0;points=[];autosize=1;fontSize=16;" vertex="1" parent="1">
          <mxGeometry x="210" y="365" width="320" height="20" as="geometry" />
        </mxCell>
        <mxCell id="sYa-3_UBHqryfJlwteUG-1" value="" style="endArrow=classic;html=1;fontSize=16;" edge="1" parent="1">
          <mxGeometry width="50" height="50" relative="1" as="geometry">
            <mxPoint x="200" y="200" as="sourcePoint" />
            <mxPoint x="570" y="200" as="targetPoint" />
          </mxGeometry>
        </mxCell>
        <mxCell id="sYa-3_UBHqryfJlwteUG-2" value="" style="endArrow=classic;html=1;fontSize=16;" edge="1" parent="1">
          <mxGeometry width="50" height="50" relative="1" as="geometry">
            <mxPoint x="200" y="350" as="sourcePoint" />
            <mxPoint x="570" y="350" as="targetPoint" />
          </mxGeometry>
        </mxCell>
        <mxCell id="sYa-3_UBHqryfJlwteUG-3" value="user login" style="text;html=1;align=center;verticalAlign=middle;resizable=0;points=[];autosize=1;fontSize=16;" vertex="1" parent="1">
          <mxGeometry x="330" y="180" width="80" height="20" as="geometry" />
        </mxCell>
        <mxCell id="sYa-3_UBHqryfJlwteUG-4" value="" style="endArrow=classic;html=1;fontSize=16;" edge="1" parent="1">
          <mxGeometry width="50" height="50" relative="1" as="geometry">
            <mxPoint x="570" y="250" as="sourcePoint" />
            <mxPoint x="200" y="250" as="targetPoint" />
          </mxGeometry>
        </mxCell>
        <mxCell id="sYa-3_UBHqryfJlwteUG-5" value="user information validation" style="text;html=1;align=center;verticalAlign=middle;resizable=0;points=[];autosize=1;fontSize=16;" vertex="1" parent="1">
          <mxGeometry x="270" y="220" width="200" height="20" as="geometry" />
        </mxCell>
      </root>
    </mxGraphModel>
  </diagram>
  <diagram id="n0a2dZA8mlc3wYBlBe_L" name="User-Alert Agent">
    <mxGraphModel dx="1422" dy="762" grid="1" gridSize="10" guides="1" tooltips="1" connect="1" arrows="1" fold="1" page="1" pageScale="1" pageWidth="827" pageHeight="1169" math="0" shadow="0">
      <root>
        <mxCell id="HMWF1-UY4_AFCpThnTnK-0" />
        <mxCell id="HMWF1-UY4_AFCpThnTnK-1" parent="HMWF1-UY4_AFCpThnTnK-0" />
        <mxCell id="HMWF1-UY4_AFCpThnTnK-2" value="User&lt;br&gt;Agent" style="rounded=1;whiteSpace=wrap;html=1;fontSize=16;rotation=90;horizontal=0;fontStyle=1" vertex="1" parent="HMWF1-UY4_AFCpThnTnK-1">
          <mxGeometry x="40" y="240" width="250" height="140" as="geometry" />
        </mxCell>
        <mxCell id="HMWF1-UY4_AFCpThnTnK-3" value="Alert&lt;br&gt;Agent" style="rounded=1;whiteSpace=wrap;html=1;fontSize=16;rotation=90;horizontal=0;fontStyle=1" vertex="1" parent="HMWF1-UY4_AFCpThnTnK-1">
          <mxGeometry x="500" y="240" width="250" height="140" as="geometry" />
        </mxCell>
        <mxCell id="GXa3ckvCxxiPBGLlxtdj-0" value="" style="endArrow=classic;html=1;fontSize=16;exitX=0.224;exitY=0.007;exitDx=0;exitDy=0;exitPerimeter=0;entryX=0.22;entryY=0.993;entryDx=0;entryDy=0;entryPerimeter=0;" edge="1" parent="HMWF1-UY4_AFCpThnTnK-1" source="HMWF1-UY4_AFCpThnTnK-2" target="HMWF1-UY4_AFCpThnTnK-3">
          <mxGeometry width="50" height="50" relative="1" as="geometry">
            <mxPoint x="400" y="400" as="sourcePoint" />
            <mxPoint x="450" y="350" as="targetPoint" />
          </mxGeometry>
        </mxCell>
        <mxCell id="GXa3ckvCxxiPBGLlxtdj-1" value="user location and address" style="text;html=1;align=center;verticalAlign=middle;resizable=0;points=[];autosize=1;fontSize=16;" vertex="1" parent="HMWF1-UY4_AFCpThnTnK-1">
          <mxGeometry x="290" y="210" width="200" height="20" as="geometry" />
        </mxCell>
        <mxCell id="GXa3ckvCxxiPBGLlxtdj-2" value="" style="endArrow=classic;html=1;fontSize=16;entryX=0.864;entryY=0;entryDx=0;entryDy=0;entryPerimeter=0;" edge="1" parent="HMWF1-UY4_AFCpThnTnK-1" target="HMWF1-UY4_AFCpThnTnK-2">
          <mxGeometry width="50" height="50" relative="1" as="geometry">
            <mxPoint x="555" y="401" as="sourcePoint" />
            <mxPoint x="235" y="403" as="targetPoint" />
          </mxGeometry>
        </mxCell>
        <mxCell id="GXa3ckvCxxiPBGLlxtdj-3" value="alert information" style="text;html=1;align=center;verticalAlign=middle;resizable=0;points=[];autosize=1;fontSize=16;" vertex="1" parent="HMWF1-UY4_AFCpThnTnK-1">
          <mxGeometry x="329" y="370" width="130" height="20" as="geometry" />
        </mxCell>
      </root>
    </mxGraphModel>
  </diagram>
  <diagram id="Z3TncANBkIqQ_jCNZaE2" name="User-Lab Agent">
    <mxGraphModel dx="1422" dy="762" grid="1" gridSize="10" guides="1" tooltips="1" connect="1" arrows="1" fold="1" page="1" pageScale="1" pageWidth="827" pageHeight="1169" math="0" shadow="0">
      <root>
        <mxCell id="M9Hoo6eLXHlCo63HJfQX-0" />
        <mxCell id="M9Hoo6eLXHlCo63HJfQX-1" parent="M9Hoo6eLXHlCo63HJfQX-0" />
        <mxCell id="epRCwydYSpxJEUAAiu2l-0" value="User&lt;br&gt;Agent" style="rounded=1;whiteSpace=wrap;html=1;fontSize=16;rotation=90;horizontal=0;fontStyle=1" vertex="1" parent="M9Hoo6eLXHlCo63HJfQX-1">
          <mxGeometry x="40" y="240" width="250" height="140" as="geometry" />
        </mxCell>
        <mxCell id="fP2Yzqxgr5pwdNIbHrWx-0" value="Lab&lt;br&gt;Agent" style="rounded=1;whiteSpace=wrap;html=1;fontSize=16;rotation=90;horizontal=0;fontStyle=1" vertex="1" parent="M9Hoo6eLXHlCo63HJfQX-1">
          <mxGeometry x="370" y="240" width="250" height="140" as="geometry" />
        </mxCell>
        <mxCell id="fP2Yzqxgr5pwdNIbHrWx-1" value="" style="endArrow=classic;html=1;fontSize=16;entryX=0.536;entryY=0.986;entryDx=0;entryDy=0;entryPerimeter=0;" edge="1" parent="M9Hoo6eLXHlCo63HJfQX-1" target="fP2Yzqxgr5pwdNIbHrWx-0">
          <mxGeometry width="50" height="50" relative="1" as="geometry">
            <mxPoint x="236" y="319" as="sourcePoint" />
            <mxPoint x="440" y="370" as="targetPoint" />
          </mxGeometry>
        </mxCell>
        <mxCell id="fP2Yzqxgr5pwdNIbHrWx-2" value="update user location" style="text;html=1;align=center;verticalAlign=middle;resizable=0;points=[];autosize=1;fontSize=16;" vertex="1" parent="M9Hoo6eLXHlCo63HJfQX-1">
          <mxGeometry x="245" y="290" width="160" height="20" as="geometry" />
        </mxCell>
        <mxCell id="fP2Yzqxgr5pwdNIbHrWx-3" value="Lab&lt;br&gt;Web&lt;br&gt;Service" style="strokeWidth=2;html=1;shape=mxgraph.flowchart.document2;whiteSpace=wrap;size=0.25;fontSize=16;fontStyle=1" vertex="1" parent="M9Hoo6eLXHlCo63HJfQX-1">
          <mxGeometry x="690" y="245" width="100" height="135" as="geometry" />
        </mxCell>
        <mxCell id="fP2Yzqxgr5pwdNIbHrWx-4" value="" style="endArrow=classic;html=1;fontSize=16;exitX=0.548;exitY=0;exitDx=0;exitDy=0;exitPerimeter=0;" edge="1" parent="M9Hoo6eLXHlCo63HJfQX-1" source="fP2Yzqxgr5pwdNIbHrWx-0">
          <mxGeometry width="50" height="50" relative="1" as="geometry">
            <mxPoint x="390" y="400" as="sourcePoint" />
            <mxPoint x="689" y="322" as="targetPoint" />
          </mxGeometry>
        </mxCell>
      </root>
    </mxGraphModel>
  </diagram>
  <diagram id="GI0s6FaBDaHlBPi_g0IY" name="Lab-PHS Agent">
    <mxGraphModel dx="1185" dy="635" grid="1" gridSize="10" guides="1" tooltips="1" connect="1" arrows="1" fold="1" page="1" pageScale="1" pageWidth="827" pageHeight="1169" math="0" shadow="0">
      <root>
        <mxCell id="jcY4SdtA9l9lt6m5Hc5q-0" />
        <mxCell id="jcY4SdtA9l9lt6m5Hc5q-1" parent="jcY4SdtA9l9lt6m5Hc5q-0" />
        <mxCell id="jcY4SdtA9l9lt6m5Hc5q-2" value="Lab&lt;br&gt;Agent" style="rounded=1;whiteSpace=wrap;html=1;fontSize=16;rotation=90;horizontal=0;fontStyle=1" vertex="1" parent="jcY4SdtA9l9lt6m5Hc5q-1">
          <mxGeometry x="40" y="240" width="250" height="140" as="geometry" />
        </mxCell>
        <mxCell id="jcY4SdtA9l9lt6m5Hc5q-3" value="PHS&lt;br&gt;Agent" style="rounded=1;whiteSpace=wrap;html=1;fontSize=16;rotation=90;horizontal=0;fontStyle=1" vertex="1" parent="jcY4SdtA9l9lt6m5Hc5q-1">
          <mxGeometry x="370" y="240" width="250" height="140" as="geometry" />
        </mxCell>
        <mxCell id="jcY4SdtA9l9lt6m5Hc5q-4" value="" style="endArrow=classic;html=1;fontSize=16;" edge="1" parent="jcY4SdtA9l9lt6m5Hc5q-1">
          <mxGeometry width="50" height="50" relative="1" as="geometry">
            <mxPoint x="236" y="280" as="sourcePoint" />
            <mxPoint x="421" y="280" as="targetPoint" />
          </mxGeometry>
        </mxCell>
        <mxCell id="jcY4SdtA9l9lt6m5Hc5q-5" value="update user health staus" style="text;html=1;align=center;verticalAlign=middle;resizable=0;points=[];autosize=1;fontSize=16;" vertex="1" parent="jcY4SdtA9l9lt6m5Hc5q-1">
          <mxGeometry x="235" y="250" width="190" height="20" as="geometry" />
        </mxCell>
        <mxCell id="jcY4SdtA9l9lt6m5Hc5q-6" value="PHS&lt;br&gt;Web&lt;br&gt;Service" style="strokeWidth=2;html=1;shape=mxgraph.flowchart.document2;whiteSpace=wrap;size=0.25;fontSize=16;fontStyle=1" vertex="1" parent="jcY4SdtA9l9lt6m5Hc5q-1">
          <mxGeometry x="690" y="245" width="100" height="135" as="geometry" />
        </mxCell>
        <mxCell id="jcY4SdtA9l9lt6m5Hc5q-7" value="" style="endArrow=classic;html=1;fontSize=16;exitX=0.548;exitY=0;exitDx=0;exitDy=0;exitPerimeter=0;" edge="1" parent="jcY4SdtA9l9lt6m5Hc5q-1" source="jcY4SdtA9l9lt6m5Hc5q-3">
          <mxGeometry width="50" height="50" relative="1" as="geometry">
            <mxPoint x="390" y="400" as="sourcePoint" />
            <mxPoint x="689" y="322" as="targetPoint" />
          </mxGeometry>
        </mxCell>
        <mxCell id="8zXpZLW1z6EbZIr7nRKy-1" value="" style="endArrow=classic;html=1;fontSize=16;exitX=0.704;exitY=0;exitDx=0;exitDy=0;exitPerimeter=0;" edge="1" parent="jcY4SdtA9l9lt6m5Hc5q-1" source="jcY4SdtA9l9lt6m5Hc5q-2">
          <mxGeometry width="50" height="50" relative="1" as="geometry">
            <mxPoint x="320" y="390" as="sourcePoint" />
            <mxPoint x="420" y="361" as="targetPoint" />
            <Array as="points">
              <mxPoint x="420" y="361" />
            </Array>
          </mxGeometry>
        </mxCell>
        <mxCell id="8zXpZLW1z6EbZIr7nRKy-3" value="&lt;div style=&quot;text-align: justify&quot;&gt;&lt;span&gt;update user location&amp;nbsp;&lt;/span&gt;&lt;/div&gt;&lt;div style=&quot;text-align: justify&quot;&gt;&lt;span&gt;whose health status&lt;/span&gt;&lt;/div&gt;&lt;div style=&quot;text-align: justify&quot;&gt;&lt;span&gt;&amp;nbsp;changed&lt;/span&gt;&lt;/div&gt;" style="text;html=1;align=center;verticalAlign=middle;resizable=0;points=[];autosize=1;fontSize=16;" vertex="1" parent="jcY4SdtA9l9lt6m5Hc5q-1">
          <mxGeometry x="250" y="370" width="160" height="60" as="geometry" />
        </mxCell>
      </root>
    </mxGraphModel>
  </diagram>
  <diagram id="b3Uia8T_dl2qNIrls9mt" name="PHS-Alert Agent">
    <mxGraphModel dx="1422" dy="762" grid="1" gridSize="10" guides="1" tooltips="1" connect="1" arrows="1" fold="1" page="1" pageScale="1" pageWidth="827" pageHeight="1169" math="0" shadow="0">
      <root>
        <mxCell id="jV1jxG_oE3gv88WhPxK--0" />
        <mxCell id="jV1jxG_oE3gv88WhPxK--1" parent="jV1jxG_oE3gv88WhPxK--0" />
        <mxCell id="jV1jxG_oE3gv88WhPxK--2" value="Alert&lt;br&gt;Agent" style="rounded=1;whiteSpace=wrap;html=1;fontSize=16;rotation=90;horizontal=0;fontStyle=1" vertex="1" parent="jV1jxG_oE3gv88WhPxK--1">
          <mxGeometry x="10" y="240" width="250" height="140" as="geometry" />
        </mxCell>
        <mxCell id="jV1jxG_oE3gv88WhPxK--3" value="PHS&lt;br&gt;Agent" style="rounded=1;whiteSpace=wrap;html=1;fontSize=16;rotation=90;horizontal=0;fontStyle=1" vertex="1" parent="jV1jxG_oE3gv88WhPxK--1">
          <mxGeometry x="370" y="240" width="250" height="140" as="geometry" />
        </mxCell>
        <mxCell id="jV1jxG_oE3gv88WhPxK--6" value="PHS&lt;br&gt;Web&lt;br&gt;Service" style="strokeWidth=2;html=1;shape=mxgraph.flowchart.document2;whiteSpace=wrap;size=0.25;fontSize=16;fontStyle=1" vertex="1" parent="jV1jxG_oE3gv88WhPxK--1">
          <mxGeometry x="690" y="245" width="100" height="135" as="geometry" />
        </mxCell>
        <mxCell id="jV1jxG_oE3gv88WhPxK--7" value="" style="endArrow=classic;html=1;fontSize=16;exitX=0.548;exitY=0;exitDx=0;exitDy=0;exitPerimeter=0;" edge="1" parent="jV1jxG_oE3gv88WhPxK--1" source="jV1jxG_oE3gv88WhPxK--3">
          <mxGeometry width="50" height="50" relative="1" as="geometry">
            <mxPoint x="390" y="400" as="sourcePoint" />
            <mxPoint x="688.9999999999998" y="321.9999999999999" as="targetPoint" />
          </mxGeometry>
        </mxCell>
        <mxCell id="yh_dXkEEGBPWBBGzsLLI-0" value="" style="endArrow=classic;html=1;fontSize=16;entryX=0.536;entryY=0.007;entryDx=0;entryDy=0;entryPerimeter=0;" edge="1" parent="jV1jxG_oE3gv88WhPxK--1" target="jV1jxG_oE3gv88WhPxK--2">
          <mxGeometry width="50" height="50" relative="1" as="geometry">
            <mxPoint x="420" y="320" as="sourcePoint" />
            <mxPoint x="440" y="370" as="targetPoint" />
          </mxGeometry>
        </mxCell>
        <mxCell id="yh_dXkEEGBPWBBGzsLLI-1" value="Alert Information to &lt;br&gt;specific location and address&amp;nbsp;" style="text;html=1;align=center;verticalAlign=middle;resizable=0;points=[];autosize=1;fontSize=16;" vertex="1" parent="jV1jxG_oE3gv88WhPxK--1">
          <mxGeometry x="200" y="280" width="230" height="40" as="geometry" />
        </mxCell>
      </root>
    </mxGraphModel>
  </diagram>
</mxfile>
